<svg width="45" height="45" viewBox="0 0 45 45" fill="none" xmlns="http://www.w3.org/2000/svg">
<path d="M22.5298 44.5389C20.7574 44.5389 18.9849 44.3262 17.2125 43.9009C5.51433 40.994 -1.64635 29.0832 1.26046 17.3142C2.67842 11.6423 6.22332 6.82129 11.2571 3.84358C16.2908 0.794976 22.1753 -0.0557973 27.8472 1.36216C39.5453 4.26897 46.706 16.1798 43.7992 27.9488C41.3178 37.8745 32.3846 44.5389 22.5298 44.5389ZM22.4589 1.36216C18.6304 1.36216 14.9437 2.42563 11.5407 4.41077C6.7196 7.31758 3.24561 11.9968 1.89855 17.456C-0.937362 28.7996 6.01062 40.356 17.3543 43.1919C28.6979 46.0278 40.2543 39.0798 43.0902 27.7362C45.9261 16.3925 38.9781 4.83615 27.6345 2.00024C25.9329 1.57485 24.2314 1.36216 22.4589 1.36216Z" fill="#444094"/>
<path d="M22.2436 9.09033C22.8817 8.73584 23.7324 9.51571 23.378 10.2247C23.1653 10.7919 22.3854 10.9337 22.0309 10.5083C21.6055 10.0829 21.7473 9.30302 22.2436 9.09033ZM15.2247 9.8702C15.6501 9.72841 16.1464 10.0829 16.0755 10.5083C16.1464 11.0046 15.5083 11.3591 15.1538 11.0755C14.5866 10.9337 14.6575 10.012 15.2247 9.8702ZM29.617 11.1464C28.9789 11.0755 28.908 10.0829 29.4752 9.8702C29.9715 9.65751 30.3968 10.0829 30.4677 10.5083C30.3968 10.8628 30.0424 11.2173 29.617 11.1464ZM16.7845 12.8479C17.4225 12.4225 18.4151 13.0606 18.2733 13.8405C18.2733 14.6204 17.2098 15.0457 16.6427 14.5495C16.0755 14.1241 16.2173 13.2024 16.7845 12.8479ZM26.9937 13.3442C27.2773 12.5643 28.4826 12.5643 28.8371 13.2733C29.1916 13.8405 28.7662 14.5495 28.199 14.7622C27.3482 14.9039 26.5684 14.0532 26.9937 13.3442ZM21.3928 14.7622C21.3928 14.1241 21.96 13.6278 22.5981 13.5569C23.0235 13.6278 23.4489 13.8405 23.6616 14.2659C24.016 14.8331 23.7325 15.6129 23.0944 15.8965C22.8108 16.0383 22.5272 15.9674 22.1727 15.9674C21.7473 15.6838 21.3928 15.2584 21.3928 14.7622ZM10.8999 15.6838C11.538 15.3293 12.3179 15.9674 12.1052 16.6764C11.9634 17.2436 11.1835 17.4563 10.7582 17.1018C10.3328 16.7473 10.4037 15.9674 10.8999 15.6838ZM33.4455 15.6838C33.9417 15.2584 34.7925 15.7547 34.7216 16.3928C34.7216 16.96 34.0126 17.4563 33.5164 17.1018C32.9492 16.8891 32.8783 16.0383 33.4455 15.6838ZM24.3705 16.8891C25.2213 16.6055 26.2139 16.96 26.7102 17.7399C27.3482 18.6615 26.9938 20.0795 26.0012 20.6467C24.9377 21.2848 23.4489 20.7176 23.0944 19.5832C22.669 18.5197 23.3071 17.1727 24.3705 16.8891ZM19.3368 16.96C20.2585 16.5346 21.5346 16.8891 22.0309 17.8817C22.5981 18.8033 22.1727 20.1504 21.1801 20.6467C20.1876 21.2139 18.8405 20.7885 18.4151 19.7959C17.9188 18.7324 18.3442 17.4563 19.3368 16.96ZM14.3739 18.6615C14.4448 18.0235 15.012 17.669 15.5792 17.5981C16.2173 17.669 16.7136 18.1652 16.7845 18.8033C16.7136 19.4414 16.2882 20.0086 15.5792 20.0086C14.8702 20.1504 14.2321 19.3705 14.3739 18.6615ZM29.1207 17.7399C29.9006 17.3145 30.8931 17.9526 30.8931 18.8033C30.964 19.725 29.8297 20.3631 29.0498 19.7959C28.2699 19.3705 28.3408 18.1652 29.1207 17.7399ZM17.3516 21.0012C18.2024 20.7885 19.195 21.143 19.6204 21.9937C20.1167 22.7736 19.904 23.908 19.195 24.5461C18.2733 25.3968 16.5009 25.0423 16.0046 23.908C15.4374 22.7027 16.1464 21.2848 17.3516 21.0012ZM26.7811 21.0012C27.6318 20.7885 28.6244 21.0721 29.1207 21.8519C29.7588 22.7027 29.4043 24.0498 28.5535 24.617C27.6318 25.255 26.143 24.9005 25.6467 23.908C24.9377 22.8445 25.5758 21.2848 26.7811 21.0012ZM11.6798 21.9937C12.4597 21.7101 13.2396 22.5609 12.956 23.2699C12.7433 23.9789 11.8216 24.1916 11.3253 23.6953C10.7581 23.2699 10.9708 22.2064 11.6798 21.9937ZM32.1693 23.0572C32.1693 22.4191 32.5947 21.8519 33.2328 21.8519C33.729 21.9228 34.2253 22.3482 34.2253 22.9154C34.2962 23.6244 33.3746 24.1916 32.7365 23.8371C32.4529 23.6953 32.3111 23.3408 32.1693 23.0572ZM7.99313 22.3482C8.41852 22.1355 8.9857 22.5609 8.9148 23.0572C8.9148 23.6244 8.06403 23.8371 7.70954 23.3408C7.42595 23.0572 7.63864 22.49 7.99313 22.3482ZM36.6359 22.3482C36.9903 22.1355 37.4866 22.2773 37.6284 22.6318C37.8411 23.0572 37.4157 23.6244 36.9903 23.5535C36.2814 23.6244 36.1396 22.6318 36.6359 22.3482ZM19.7622 25.1132C20.9674 24.8296 22.2436 25.8222 22.2436 27.0275C22.3145 28.3036 21.0383 29.3671 19.8331 29.0835C18.9114 28.9417 18.1315 28.02 18.2024 27.0984C18.2024 26.1058 18.9114 25.255 19.7622 25.1132ZM24.5123 25.1132C25.7176 24.7587 27.0647 25.8222 27.0647 27.0275C27.1355 28.2327 25.9303 29.2962 24.725 29.0835C23.5907 28.9417 22.7399 27.6656 23.0944 26.6021C23.1653 25.8222 23.8033 25.255 24.5123 25.1132ZM15.3665 25.8222C16.2173 25.6804 16.9972 26.6021 16.6427 27.382C16.3591 28.2327 15.1538 28.4454 14.5866 27.7365C14.0194 27.1693 14.5157 25.964 15.3665 25.8222ZM29.2625 25.8931C30.0424 25.6095 30.964 26.2476 30.8931 27.0275C30.8931 27.9492 29.7588 28.5163 29.0498 28.02C28.199 27.5238 28.4117 26.1767 29.2625 25.8931ZM33.1619 29.7925C32.8783 29.2253 33.3746 28.5163 34.0126 28.5872C34.2962 28.5872 34.5089 28.7999 34.7216 29.0126C34.7925 29.3671 34.7925 29.7216 34.5798 30.0052C34.2253 30.4306 33.3746 30.3597 33.1619 29.7925ZM10.8999 28.729C11.4671 28.3745 12.3179 28.9417 12.1761 29.5798C12.1052 30.147 11.3962 30.5015 10.8999 30.147C10.3328 29.8634 10.4037 29.0126 10.8999 28.729ZM22.1018 30.0052C22.8108 29.6507 23.8033 30.2888 23.7324 31.1396C23.8033 32.0612 22.5981 32.6993 21.8891 32.1321C21.1092 31.6358 21.251 30.2888 22.1018 30.0052ZM16.9263 31.2104C17.5643 30.856 18.4151 31.4231 18.3442 32.1321C18.3442 32.6993 17.777 33.1956 17.2098 33.1247C16.7136 33.1247 16.43 32.6993 16.2882 32.2739C16.2882 31.8485 16.5009 31.3522 16.9263 31.2104ZM27.4191 31.2104C28.0572 30.7851 28.9789 31.3522 28.908 32.1321C28.908 32.912 27.9154 33.4083 27.2773 32.912C26.7102 32.4866 26.7811 31.494 27.4191 31.2104ZM29.2625 35.7479C28.9789 35.3225 29.3334 34.7553 29.7588 34.6844C30.1133 34.7553 30.5386 35.0389 30.4677 35.4643C30.4677 36.0315 29.5461 36.2442 29.2625 35.7479ZM14.7284 35.3225C14.8702 34.968 15.1538 34.6135 15.5083 34.7553C16.0755 34.8262 16.2882 35.677 15.7919 35.9606C15.3665 36.2442 14.7993 35.8188 14.7284 35.3225ZM21.7473 35.7479C21.8891 35.2516 22.5272 34.968 22.9526 35.2516C23.2362 35.3934 23.3071 35.677 23.378 35.9606C23.3071 36.1024 23.3071 36.2442 23.2362 36.386C23.0235 36.5987 22.8108 36.8114 22.5272 36.8114C22.0309 36.8823 21.5346 36.2442 21.7473 35.7479Z" fill="#444094"/>
</svg>
