<svg width="45" height="44" viewBox="0 0 45 44" fill="none" xmlns="http://www.w3.org/2000/svg">
<path d="M22.2837 44.0018C20.5113 44.0018 18.7388 43.7891 16.9664 43.3638C5.26824 40.386 -1.89244 28.4752 1.01437 16.7771C2.43233 11.1052 5.97722 6.28418 11.011 3.30647C16.0447 0.257867 21.9292 -0.592907 27.6011 0.82505C39.2992 3.73186 46.4599 15.6427 43.5531 27.4117C41.0716 37.3374 32.0676 44.0018 22.2837 44.0018ZM22.2128 0.82505C18.3843 0.82505 14.6977 1.88852 11.2946 3.87366C6.4735 6.78047 2.99951 11.4597 1.65245 16.9189C-1.18347 28.2625 5.76451 39.8189 17.1082 42.6548C28.4518 45.4907 40.0082 38.5427 42.8441 27.199C45.68 15.8554 38.732 4.29904 27.3884 1.46313C25.6868 1.03774 23.9853 0.82505 22.2128 0.82505Z" fill="#444094"/>
<path fill-rule="evenodd" clip-rule="evenodd" d="M15.8314 31.311H11.5775C10.6558 31.311 10.2304 31.311 10.0178 31.1692C9.73416 30.9566 9.52148 30.673 9.52148 30.3185C9.52148 30.0349 9.73417 29.6095 10.1596 28.8296L20.5816 10.4671C21.0069 9.6872 21.2196 9.26181 21.5032 9.12002C21.7868 8.97822 22.1413 8.97822 22.4958 9.12002C22.7794 9.26181 22.9921 9.6872 23.4175 10.4671L25.5444 14.2247C26.0407 15.0754 26.2534 15.5008 26.3952 15.9262C26.537 16.4225 26.537 16.9188 26.3952 17.4151C26.2534 17.8405 26.0407 18.2658 25.5444 19.1166L20.0853 28.7587C19.589 29.6095 19.3763 30.0349 19.0218 30.3185C18.6673 30.673 18.2419 30.9566 17.7456 31.0984C17.3911 31.311 16.8949 31.311 15.8314 31.311Z" fill="#444094"/>
<path fill-rule="evenodd" clip-rule="evenodd" d="M26.5351 31.311H32.5615C33.4831 31.311 33.9085 31.311 34.1921 31.1692C34.4757 30.9565 34.6884 30.6729 34.6884 30.3184C34.6884 30.0348 34.4757 29.6094 34.0503 28.9004C34.0503 28.9004 34.0503 28.8295 33.9794 28.8295L30.9308 23.654V23.5831C30.5054 22.8741 30.2927 22.5196 30.0091 22.3778C29.7255 22.236 29.3711 22.236 29.0166 22.3778C28.733 22.5196 28.5203 22.8741 28.0949 23.654L25.0463 28.8295C24.6209 29.6094 24.4082 29.9639 24.4082 30.3184C24.4082 30.6729 24.6209 30.9565 24.9045 31.1692C25.1881 31.311 25.6135 31.311 26.5351 31.311Z" fill="#444094"/>
</svg>
