<svg width="45" height="45" viewBox="0 0 45 45" fill="none" xmlns="http://www.w3.org/2000/svg">
<path d="M22.4673 44.6874C20.6949 44.6874 18.9224 44.4747 17.15 44.0493C5.45183 41.0716 -1.70885 29.1608 1.19796 17.4626C2.61592 11.7908 6.16081 6.96973 11.1946 3.99202C16.2283 0.943414 22.1128 0.0926402 27.7847 1.5106C39.4828 4.41741 46.6435 16.3282 43.7367 28.0264C41.2552 38.023 32.3221 44.6874 22.4673 44.6874ZM22.4673 1.5106C18.6388 1.5106 14.9521 2.57406 11.549 4.5592C6.728 7.46601 3.254 12.0744 1.90694 17.6044C-0.928971 28.9481 6.01902 40.5044 17.3627 43.3403C28.7063 46.1762 40.2627 39.2282 43.0986 27.8846C45.9345 16.5409 38.9865 4.98459 27.6429 2.14868C25.8704 1.72329 24.1689 1.5106 22.4673 1.5106Z" fill="#444094"/>
<path d="M31.1866 17.6734C30.903 14.7666 28.4216 13.774 25.2311 13.4904V9.44922H22.7497V13.4195C22.1116 13.4195 21.4736 13.4195 20.7646 13.4195V9.44922H18.2832V13.4904C17.716 13.4904 17.2197 13.4904 16.7234 13.4904H13.3203V16.1136C13.3203 16.1136 15.1637 16.1136 15.0928 16.1136C16.0853 16.1136 16.4398 16.6808 16.5107 17.1771V21.7854L16.4398 28.2371C16.3689 28.5207 16.2271 29.017 15.5181 29.017H13.7457L13.3203 31.9238H16.5107C17.0779 31.9238 17.716 31.9238 18.2832 31.9238V36.0359H20.7646V31.9947C21.4736 31.9947 22.1116 31.9947 22.7497 31.9947V36.0359H25.2311V31.9238C29.3432 31.7111 32.25 30.7186 32.6754 26.8192C32.959 23.6997 31.5411 22.2817 29.2014 21.7145C30.4776 21.0765 31.3993 19.8003 31.1866 17.6734ZM27.7126 26.3938C27.7126 29.4424 22.4661 29.0879 20.7646 29.0879V23.6997C22.4661 23.6288 27.7126 23.2034 27.7126 26.3938ZM26.5782 18.7368C26.5782 21.5019 22.1825 21.1474 20.8355 21.1474V16.2554C22.2534 16.2554 26.6491 15.83 26.5782 18.7368Z" fill="#444094"/>
</svg>
