<svg width="45" height="45" viewBox="0 0 45 45" fill="none" xmlns="http://www.w3.org/2000/svg">
<path d="M22.1275 44.3964C20.355 44.3964 18.5826 44.1837 16.8101 43.7583C5.11199 40.7806 -2.04869 28.8697 0.85812 17.1716C2.27608 11.4998 5.82097 6.67871 10.8547 3.70101C15.8885 0.652398 21.773 -0.198375 27.4448 1.21958C39.143 4.12639 46.3036 16.0372 43.3968 27.7354C40.9154 37.732 31.9823 44.3964 22.1275 44.3964ZM22.1275 1.21958C18.299 1.21958 14.6123 2.28305 11.2092 4.26819C6.38815 7.175 2.91416 11.7834 1.5671 17.3134C-1.26881 28.657 5.67917 40.2134 17.0228 43.0493C28.3665 45.8852 39.9228 38.9372 42.7587 27.5936C45.5947 16.2499 38.6467 4.69358 27.303 1.85766C25.5306 1.43227 23.829 1.21958 22.1275 1.21958Z" fill="#444094"/>
<path d="M16.9517 20.6431L19.8585 17.7363L20.4257 17.1691L21.9146 15.6802L26.8065 20.6431L29.7133 17.7363L21.9146 9.9375L14.0449 17.7363L16.9517 20.6431Z" fill="#444094"/>
<path d="M21.8998 19.7896L18.9922 22.6973L21.8998 25.6049L24.8075 22.6973L21.8998 19.7896Z" fill="#444094"/>
<path d="M26.8065 24.7559L21.9146 29.7187L20.1421 28.0172L19.8585 27.6627L16.9517 24.7559L14.0449 27.6627L21.9146 35.4614L29.7133 27.6627L26.8065 24.7559Z" fill="#444094"/>
<path d="M12.0776 19.8131L9.16992 22.7207L12.0776 25.6284L14.9852 22.7207L12.0776 19.8131Z" fill="#444094"/>
<path d="M31.8061 19.856L28.8984 22.7637L31.8061 25.6713L34.7137 22.7637L31.8061 19.856Z" fill="#444094"/>
</svg>
