<svg width="44" height="44" viewBox="0 0 44 44" fill="none" xmlns="http://www.w3.org/2000/svg">
<path d="M21.9712 44.0018C20.1988 44.0018 18.4263 43.7891 16.6539 43.3638C4.95574 40.386 -2.20494 28.4752 0.70187 16.7771C2.11983 11.1052 5.66472 6.28418 10.6985 3.30647C15.7322 0.257867 21.6167 -0.592907 27.2886 0.82505C38.9867 3.73186 46.1474 15.6427 43.2406 27.4117C40.7591 37.3374 31.826 44.0018 21.9712 44.0018ZM21.9712 0.82505C18.1427 0.82505 14.456 1.88852 11.053 3.87366C6.2319 6.78047 2.75791 11.4597 1.41085 16.9189C-1.42506 28.2625 5.52292 39.8189 16.8666 42.6548C28.2102 45.4907 39.7666 38.5427 42.6025 27.199C45.4384 15.8554 38.4904 4.29904 27.1468 1.46313C25.3743 1.03774 23.6728 0.82505 21.9712 0.82505Z" fill="#444094"/>
<path d="M20.2709 37.1246C20.2709 36.6283 20.3418 36.3447 20.6254 36.0611C20.6963 35.9902 20.7672 35.8484 20.6963 35.7066C19.2783 32.658 17.8604 29.5385 16.4424 26.4899C16.3715 26.419 16.3715 26.3481 16.3006 26.2772C16.1588 25.9936 16.017 25.8518 15.7335 25.7809C14.8118 25.4264 14.3864 24.363 14.8118 23.5122C14.8827 23.2995 14.8827 23.1577 14.8118 22.945C13.4647 20.0382 12.1177 17.1314 10.8415 14.2246C10.7706 14.0828 10.6997 14.0119 10.5579 14.0119C10.3452 14.0119 10.2034 14.0119 9.99073 13.941C9.21086 13.7992 8.64367 12.9484 8.78547 12.1685C8.85636 11.6723 9.06906 11.176 9.49444 10.8215C10.2034 10.2543 11.196 10.3252 11.8341 11.0342C12.1177 11.3178 12.4013 11.3887 12.7557 11.3887C16.7969 11.3887 20.909 11.3887 24.9502 11.3887C27.148 11.3887 29.4167 11.3887 31.6146 11.4596C31.7564 11.4596 31.8273 11.4596 31.8273 11.3178C32.2526 10.3961 33.3161 10.3252 33.9542 10.6088C34.5923 10.8924 34.9468 11.4596 35.0177 12.0976C35.0886 12.8066 34.7341 13.3738 34.096 13.7283C33.8124 13.8701 33.5288 13.8701 33.2452 13.941C33.1034 13.941 33.0325 14.0119 33.0325 14.0828C31.7564 16.9896 30.4093 19.9673 29.1331 22.8741C29.1331 22.945 29.1331 23.0868 29.1331 23.1577C29.4167 23.5831 29.4876 24.0794 29.3458 24.5048C29.204 25.2137 28.7787 25.6391 28.0697 25.7809C27.857 25.8518 27.7152 25.9936 27.5734 26.2063C26.6517 28.2623 25.6591 30.3184 24.7375 32.3744C24.2412 33.5088 23.7449 34.5723 23.1777 35.7066C23.1068 35.9193 23.1068 35.9902 23.2486 36.132C23.674 36.6992 23.7449 37.2664 23.3904 37.8336C23.0359 38.4716 22.5396 38.8261 21.8307 38.8261C21.0508 38.8261 20.2709 38.0463 20.2709 37.1246ZM22.0434 35.2103C22.1852 34.9976 22.2561 34.8558 22.327 34.6432C23.7449 31.6654 25.092 28.6877 26.5099 25.6391C26.5808 25.5682 26.5099 25.4973 26.5099 25.4264C26.3681 25.1428 26.1554 24.9301 26.0845 24.6466C25.9427 24.2921 25.73 24.0085 25.4465 23.7958C24.383 23.0159 23.3195 22.236 22.2561 21.4562C22.1143 21.3144 21.9725 21.3144 21.8307 21.4562C20.7672 22.236 19.7037 22.945 18.6403 23.7249C18.4985 23.7958 18.4276 23.8667 18.2858 24.0085C18.2149 24.0794 18.144 24.2212 18.144 24.2921C18.0731 24.7175 17.9313 25.0719 17.6477 25.4264C17.5768 25.5682 17.5768 25.6391 17.6477 25.7809C18.2858 27.1989 18.9239 28.6168 19.6328 30.0348C20.3418 31.5945 21.1217 33.2252 21.8307 34.785C21.8307 34.9267 21.9725 35.0685 22.0434 35.2103ZM31.1892 12.8775C25.092 12.8066 18.9948 12.6648 12.8975 12.7357C12.9684 12.8066 12.9684 12.8066 13.0393 12.8775C14.3155 13.7992 15.5208 14.7209 16.7969 15.6425C18.4276 16.7769 19.9873 17.9822 21.618 19.1165C22.2561 19.5419 21.9725 19.5419 22.6105 19.1165C25.092 17.3441 27.6443 15.5007 30.1257 13.6574C30.4802 13.4447 30.8347 13.1611 31.1892 12.8775ZM20.8381 20.3927C18.0731 18.3367 15.3081 16.2806 12.4722 14.2955C12.4722 14.3664 12.5431 14.5082 12.5431 14.5791C13.6774 17.2023 14.8827 19.7546 16.017 22.3778C16.0879 22.5196 16.1588 22.5196 16.2297 22.5196C16.5842 22.5196 17.0096 22.5905 17.2932 22.8032C17.435 22.8741 17.5059 22.8741 17.6477 22.8032C18.5694 22.0942 19.4201 21.4562 20.3418 20.8181C20.5545 20.6054 20.6963 20.5345 20.8381 20.3927ZM23.3195 20.3927C23.3904 20.4636 23.4613 20.5345 23.6031 20.6054C24.5248 21.3144 25.4465 22.0233 26.3681 22.7323C26.5099 22.8032 26.5808 22.8741 26.7226 22.7323C27.0771 22.5196 27.4316 22.3778 27.7861 22.3778C27.9279 22.3778 27.9988 22.3069 28.0697 22.1651C28.4951 21.3144 28.8496 20.4636 29.2749 19.6128C30.0548 17.9113 30.7638 16.2806 31.5437 14.5791C31.5437 14.5082 31.6146 14.4373 31.6146 14.3664C31.6146 14.3664 31.6146 14.3664 31.5437 14.3664C28.7787 16.3515 26.0136 18.3367 23.3195 20.3927Z" fill="#444094"/>
</svg>
