<svg width="47" height="47" viewBox="0 0 47 47" fill="none" xmlns="http://www.w3.org/2000/svg">
<circle cx="23.5" cy="23.5" r="23" fill="#444094" stroke="white"/>
<path d="M23.3736 45.5389C21.6011 45.5389 19.8287 45.3262 18.0562 44.9009C6.35808 41.9232 -0.802597 30.0123 2.10421 18.3142C3.52217 12.6423 7.06707 7.82129 12.1008 4.84358C17.1346 1.79498 23.0191 0.944203 28.6909 2.36216C40.389 5.26897 47.5497 17.1798 44.6429 28.9488C42.1615 38.8745 33.1575 45.5389 23.3736 45.5389ZM23.3027 2.36216C19.4742 2.36216 15.7875 3.42563 12.3844 5.41077C7.56335 8.31758 4.08935 12.9968 2.74229 18.456C-0.093623 29.7996 6.85436 41.356 18.198 44.1919C29.5417 47.0278 41.098 40.0798 43.9339 28.7362C46.7699 17.3925 39.8218 5.83615 28.4782 3.00024C26.7766 2.57485 25.0751 2.36216 23.3027 2.36216Z" fill="white"/>
<path d="M15.998 24.7664V34.2667H23.1587C23.1587 34.2667 33.2262 35.1175 33.2262 23.7738C33.2262 12.6429 23.5841 12.9264 22.1661 12.9264H16.0689V22.4268M20.0392 22.4268V16.8967H22.8751C23.9386 16.8967 29.2559 17.3221 29.2559 23.8447C29.2559 30.3673 23.7968 30.2964 23.0169 30.2964H20.0392V24.7664" fill="white"/>
<path d="M25.0726 20.2305H13.4453V23.1373H25.0726V20.2305Z" fill="white"/>
<path d="M25.0726 24.7656H13.4453V27.6724H25.0726V24.7656Z" fill="white"/>
</svg>
