<svg width="45" height="45" viewBox="0 0 45 45" fill="none" xmlns="http://www.w3.org/2000/svg">
<path d="M22.3736 44.3964C20.6011 44.3964 18.8287 44.1837 17.0562 43.7583C5.35808 40.8515 -1.8026 28.9406 1.10421 17.1716C2.52217 11.4998 6.06705 6.67871 11.1008 3.70101C16.1345 0.652398 22.0191 -0.198375 27.6909 1.21958C39.389 4.12639 46.5497 16.0372 43.6429 27.8063C41.1615 37.732 32.2284 44.3964 22.3736 44.3964ZM22.3027 1.21958C18.4742 1.21958 14.7875 2.28305 11.3844 4.26819C6.56335 7.175 3.08935 11.8543 1.74229 17.3134C-1.09362 28.657 5.85436 40.2134 17.198 43.0493C28.5417 45.8852 40.098 38.9372 42.9339 27.5936C45.7699 16.2499 38.8218 4.69358 27.4782 1.85766C25.7766 1.43227 24.0751 1.21958 22.3027 1.21958Z" fill="#444094"/>
<path d="M21.1671 11.7819H15.0699V21.2822H12.5176V23.6219H15.0699V33.1222H22.2306C22.2306 33.1222 32.2981 33.9729 32.2981 22.6293C32.2272 11.4983 22.5851 11.7819 21.1671 11.7819ZM22.0179 29.1519H19.0402V23.6219H23.5067V21.2822H19.0402V15.7522H21.8761C22.9396 15.7522 28.2569 16.1776 28.2569 22.7002C28.2569 29.2228 22.7978 29.1519 22.0179 29.1519Z" fill="#444094"/>
</svg>
