<svg width="45" height="44" viewBox="0 0 45 44" fill="none" xmlns="http://www.w3.org/2000/svg">
<path d="M22.4673 44.0018C20.6949 44.0018 18.9224 43.7891 17.15 43.3638C5.45183 40.386 -1.70885 28.4752 1.19796 16.7771C2.61592 11.1052 6.16081 6.28418 11.1946 3.30647C16.2283 0.257867 22.1128 -0.592907 27.7847 0.82505C39.4828 3.73186 46.6435 15.6427 43.7367 27.3408C41.2552 37.3374 32.3221 44.0018 22.4673 44.0018ZM22.4673 0.82505C18.6388 0.82505 14.9521 1.88852 11.549 3.87366C6.728 6.78047 3.254 11.3888 1.90694 16.9189C-0.928971 28.2625 6.01902 39.8189 17.3627 42.6548C28.7063 45.4907 40.2627 38.5427 43.0986 27.199C45.9345 15.8554 38.9865 4.29904 27.6429 1.46313C25.8704 1.03774 24.1689 0.82505 22.4673 0.82505Z" fill="#444094"/>
<path d="M22.9613 13.5874C25.8588 13.5874 28.2077 12.2225 28.2077 10.5388C28.2077 8.85514 25.8588 7.49023 22.9613 7.49023C20.0638 7.49023 17.7148 8.85514 17.7148 10.5388C17.7148 12.2225 20.0638 13.5874 22.9613 13.5874Z" fill="#444094"/>
<path d="M22.9613 36.6285C25.8588 36.6285 28.2077 35.2636 28.2077 33.5799C28.2077 31.8962 25.8588 30.5312 22.9613 30.5312C20.0638 30.5312 17.7148 31.8962 17.7148 33.5799C17.7148 35.2636 20.0638 36.6285 22.9613 36.6285Z" fill="#444094"/>
<path d="M15.6065 17.806C17.0553 15.2967 17.0477 12.5801 15.5897 11.7383C14.1316 10.8964 11.7751 12.2481 10.3263 14.7574C8.87758 17.2666 8.88513 19.9832 10.3432 20.8251C11.8013 21.6669 14.1578 20.3152 15.6065 17.806Z" fill="#444094"/>
<path d="M35.6104 29.3314C37.0592 26.8221 37.0516 24.1055 35.5936 23.2636C34.1355 22.4218 31.779 23.7735 30.3303 26.2828C28.8815 28.792 28.889 31.5086 30.3471 32.3505C31.8052 33.1923 34.1617 31.8406 35.6104 29.3314Z" fill="#444094"/>
<path d="M15.6014 32.377C17.0595 31.5351 17.067 28.8185 15.6182 26.3093C14.1695 23.8 11.813 22.4483 10.3549 23.2901C8.89685 24.132 8.8893 26.8486 10.3381 29.3579C11.7868 31.8671 14.1433 33.2188 15.6014 32.377Z" fill="#444094"/>
<path d="M35.5779 20.8145C37.036 19.9726 37.0436 17.256 35.5948 14.7468C34.146 12.2375 31.7896 10.8858 30.3315 11.7276C28.8734 12.5695 28.8659 15.2861 30.3146 17.7954C31.7634 20.3046 34.1199 21.6563 35.5779 20.8145Z" fill="#444094"/>
</svg>
