<svg width="45" height="45" viewBox="0 0 45 45" fill="none" xmlns="http://www.w3.org/2000/svg">
<path d="M22.8833 44.6874C21.1109 44.6874 19.3384 44.4747 17.566 44.0493C5.86785 41.0716 -1.29283 29.1608 1.61398 17.4626C3.03194 11.7908 6.57683 6.96973 11.6106 3.99202C16.6443 0.943414 22.5288 0.0926402 28.2007 1.5106C39.8988 4.41741 47.0595 16.3282 44.1527 28.0973C41.6713 38.023 32.7381 44.6874 22.8833 44.6874ZM22.8833 1.5106C19.0548 1.5106 15.3682 2.57406 11.9651 4.5592C7.14401 7.46601 3.67002 12.1453 2.32296 17.6044C-0.512955 28.9481 6.43503 40.5044 17.7787 43.3403C29.1223 46.1762 40.6787 39.2282 43.5146 27.8846C46.3505 16.5409 39.4025 4.98459 28.0589 2.14868C26.2864 1.72329 24.5849 1.5106 22.8833 1.5106Z" fill="#444094"/>
<path d="M22.8848 5.69141V17.744L33.094 22.2815L22.8848 5.69141Z" fill="#444094" fill-opacity="0.602"/>
<path d="M22.8851 5.69141L12.6758 22.3524L22.8851 17.8149V5.69141Z" fill="#444094"/>
<path d="M22.8848 30.1507V38.3749L33.094 24.1953L22.8848 30.1507Z" fill="#444094" fill-opacity="0.602"/>
<path d="M22.8851 38.3749V30.1507L12.6758 24.1953L22.8851 38.3749Z" fill="#444094"/>
<path d="M22.8848 28.237L33.094 22.2816L22.8848 17.7441V28.237Z" fill="#444094" fill-opacity="0.2"/>
<path d="M12.6758 22.3525L22.8851 28.3079V17.7441L12.6758 22.3525Z" fill="#444094" fill-opacity="0.602"/>
</svg>
