<svg width="45" height="44" viewBox="0 0 45 44" fill="none" xmlns="http://www.w3.org/2000/svg">
<path d="M22.1275 44.0018C20.355 44.0018 18.5826 43.7891 16.8101 43.3638C5.11199 40.386 -2.04869 28.4752 0.85812 16.7771C2.27608 11.1052 5.82097 6.28418 10.8547 3.30647C15.8885 0.257867 21.773 -0.592907 27.4448 0.82505C39.143 3.73186 46.3036 15.6427 43.3968 27.3408C40.9154 37.3374 31.9823 44.0018 22.1275 44.0018ZM22.1275 0.82505C18.299 0.82505 14.6123 1.88852 11.2092 3.87366C6.38815 6.78047 2.91416 11.3888 1.5671 16.9189C-1.26881 28.2625 5.67917 39.8189 17.0228 42.6548C28.3665 45.4907 39.9228 38.5427 42.7587 27.199C45.5947 15.8554 38.6467 4.29904 27.303 1.46313C25.5306 1.03774 23.829 0.82505 22.1275 0.82505Z" fill="#444094"/>
<path d="M22.127 35.7058L10.2871 28.8996V15.2163L22.127 8.41016L33.967 15.2163V28.8287L22.127 35.7058ZM12.4849 27.6235L22.1979 33.2244L31.9109 27.6235V16.4216L22.1979 10.8207L12.4849 16.4216V27.6235Z" fill="#444094"/>
</svg>
