<svg width="45" height="45" viewBox="0 0 45 45" fill="none" xmlns="http://www.w3.org/2000/svg">
<path fill-rule="evenodd" clip-rule="evenodd" d="M18.9111 10.3711L15.6498 22.5655L13.0975 23.5581L12.1758 27.0321L14.799 26.1813L13.0266 33.342L31.8854 33.4129L33.0198 28.8045H21.5343L23.0232 23.2745L26.1427 21.9274L27.0643 18.5243L24.0157 19.5878L26.4263 10.5129L18.9111 10.3711Z" fill="#444094"/>
<path d="M22.4556 44.6874C20.6831 44.6874 18.9107 44.4747 17.1383 44.0493C5.44011 41.1425 -1.72057 29.2317 1.18625 17.4626C2.6042 11.7908 6.1491 6.96973 11.1828 3.99202C16.2166 0.943414 22.1011 0.0926402 27.7729 1.5106C39.4711 4.41741 46.6318 16.3282 43.7249 28.0973C41.2435 38.023 32.3104 44.6874 22.4556 44.6874ZM22.3847 1.5106C18.5562 1.5106 14.8695 2.57406 11.4664 4.5592C6.64538 7.46601 3.17139 12.1453 1.82433 17.6044C-1.01158 28.9481 5.9364 40.5044 17.2801 43.3403C28.6237 46.1762 40.1801 39.2282 43.016 27.8846C45.8519 16.5409 38.9039 4.98459 27.5602 2.14868C25.8587 1.72329 24.1572 1.5106 22.3847 1.5106Z" fill="#444094"/>
</svg>
