<svg width="45" height="44" viewBox="0 0 45 44" fill="none" xmlns="http://www.w3.org/2000/svg">
<path d="M22.6118 44.0018C20.8394 44.0018 19.067 43.7891 17.2945 43.3638C5.59636 40.386 -1.56432 28.4752 1.3425 16.7771C2.76045 11.1052 6.30534 6.28418 11.3391 3.30647C16.3728 0.257867 22.2574 -0.592907 27.9292 0.82505C39.6273 3.73186 46.788 15.6427 43.8812 27.4117C41.3998 37.3374 32.4666 44.0018 22.6118 44.0018ZM22.6118 0.82505C18.7834 0.82505 15.0967 1.88852 11.6936 3.87366C6.87253 6.78047 3.39853 11.4597 2.05147 16.9189C-0.78444 28.2625 6.16354 39.8189 17.5072 42.6548C28.8509 45.4907 40.4072 38.5427 43.2431 27.199C46.079 15.8554 39.131 4.29904 27.7874 1.46313C26.0149 1.03774 24.3134 0.82505 22.6118 0.82505Z" fill="#444094"/>
<path d="M16.0892 27.1967C15.6638 27.1967 15.2384 27.1258 14.8839 26.9131L9.85019 24.1481C9.07031 23.7227 8.57402 22.8719 8.50313 21.9502L8.36133 16.2075C8.36133 15.2858 8.78672 14.4351 9.56659 14.0097L14.5294 11.032C15.3093 10.5357 16.3019 10.5357 17.0818 10.9611L22.1155 13.7261C22.8954 14.1515 23.3917 15.0023 23.4626 15.9239L23.5335 18.3345C23.5335 18.9016 23.1081 19.327 22.6118 19.327C22.1155 19.327 21.6192 18.9016 21.6192 18.3345L21.5483 15.9239C21.5483 15.7112 21.4065 15.4985 21.2647 15.4276L16.231 12.6626C16.0183 12.5917 15.8056 12.5917 15.6638 12.6626L10.701 15.6403C10.4174 15.7112 10.3465 15.853 10.3465 16.0657L10.4883 21.8084C10.4883 22.0211 10.6301 22.2338 10.7719 22.3047L15.8056 25.0697C16.0183 25.1406 16.231 25.1406 16.3728 25.0697C16.8691 24.7862 17.4363 24.928 17.7198 25.4242C18.0034 25.9205 17.8616 26.4877 17.3654 26.7713C17.0109 27.0549 16.5146 27.1967 16.0892 27.1967Z" fill="#444094"/>
<path d="M29.205 34.4291C28.7797 34.4291 28.3543 34.3582 27.9998 34.1455L22.966 31.3805C22.1862 30.9551 21.6899 30.1043 21.619 29.1827C21.619 28.6155 22.0444 28.1901 22.5406 28.1901C23.0369 28.1901 23.5332 28.6155 23.5332 29.1118C23.5332 29.3245 23.675 29.5372 23.8168 29.6081L28.8506 32.3731C29.0633 32.444 29.2759 32.444 29.4177 32.3731L34.3806 29.3954C34.5933 29.2536 34.6642 29.1118 34.6642 28.8991L34.5224 23.1564C34.5224 22.9437 34.3806 22.731 34.2388 22.6601L29.205 19.8951C28.9924 19.8242 28.7797 19.8242 28.6379 19.8951L17.436 26.843C17.0106 27.1266 16.3725 26.9848 16.0889 26.5594C15.8054 26.1341 15.9472 25.496 16.3725 25.2124L27.6453 18.2644C28.4252 17.7681 29.4177 17.7681 30.1976 18.1935L35.2314 20.9585C36.0112 21.3839 36.5075 22.2347 36.5784 23.1564L36.7202 28.8991C36.7202 29.8207 36.2948 30.6715 35.515 31.0969L30.5521 34.0746C30.1267 34.3582 29.7013 34.4291 29.205 34.4291Z" fill="#444094"/>
</svg>
