<svg width="45" height="44" viewBox="0 0 45 44" fill="none" xmlns="http://www.w3.org/2000/svg">
<path d="M22.4556 44.0018C20.6831 44.0018 18.9107 43.7891 17.1383 43.3638C5.44011 40.4569 -1.72057 28.5461 1.18625 16.7771C2.6042 11.1052 6.1491 6.28418 11.1828 3.30647C16.2166 0.257867 22.1011 -0.592907 27.7729 0.82505C39.4711 3.73186 46.6318 15.6427 43.7249 27.4117C41.2435 37.3374 32.3104 44.0018 22.4556 44.0018ZM22.3847 0.82505C18.5562 0.82505 14.8695 1.88852 11.4664 3.87366C6.64538 6.78047 3.17139 11.4597 1.82433 16.9189C-1.01158 28.2625 5.9364 39.8189 17.2801 42.6548C28.6237 45.4907 40.1801 38.5427 43.016 27.199C45.8519 15.8554 38.9039 4.29904 27.5602 1.46313C25.8587 1.03774 24.1572 0.82505 22.3847 0.82505Z" fill="#444094"/>
<path d="M34.2239 27.1295C34.153 27.6258 34.0112 28.122 33.7276 28.6892C33.7276 28.7601 33.444 29.2564 33.3731 29.3273L33.3022 29.3982C33.3022 29.3982 32.9477 29.9654 32.6641 30.249C32.3097 30.6744 31.8843 31.0997 31.4589 31.4542C28.7648 33.7939 24.6527 35.4245 21.8877 35.2827C19.2644 35.07 15.7196 33.5103 13.1672 31.3124C11.6075 29.9654 10.544 28.6183 10.2604 27.3422C10.1895 26.9877 10.1186 26.7041 10.1895 26.2078C10.1895 26.2078 10.1895 26.2078 10.2604 26.2078C11.4657 26.066 14.3725 25.9242 16.6412 28.2638C16.7121 28.3347 16.783 28.3347 16.8539 28.3347H16.9248C16.9957 28.3347 17.1375 28.2638 17.1375 28.122C17.2084 27.9802 18.6973 24.2227 22.5966 24.2227C26.496 24.2227 27.3468 27.9093 27.3468 28.0511C27.3468 28.122 27.4177 28.2638 27.5595 28.2638C27.6304 28.3347 27.7722 28.2638 27.8431 28.1929C30.4663 25.9951 33.3022 26.066 34.4366 26.1369C34.4366 26.1369 34.4366 26.1369 34.5075 26.1369C34.2948 26.7041 34.2948 26.9877 34.2239 27.1295Z" fill="#444094"/>
<path d="M24.6533 30.3894L24.5824 30.4603C24.5115 30.5312 24.5115 30.5312 24.5115 30.5312C24.5115 30.5312 24.2279 30.5312 23.8734 30.5312H23.3062L23.1644 30.3185L23.0226 30.1058H22.9517H22.8808V29.6804V29.2551L22.9517 29.1842C23.3062 29.0424 23.7316 28.7588 23.9443 28.4752C24.0861 28.3334 24.157 28.1207 24.2279 27.9789C24.2988 27.8371 24.2988 27.5535 24.2988 27.1281C24.2988 26.8445 24.2988 26.7736 24.157 26.6318C24.0861 26.49 24.0152 26.4191 23.8025 26.3482L23.6607 26.2773H22.4554C21.392 26.2773 21.2502 26.2773 21.1793 26.2773C20.9666 26.3482 20.8248 26.49 20.7539 26.7027C20.7539 26.7736 20.7539 26.8445 20.7539 27.2699C20.7539 27.6953 20.7539 27.7662 20.8248 27.8371C20.9666 28.3334 21.4629 28.6879 22.2427 29.0424L22.4554 29.1133V29.5386V29.964H22.2427L22.1009 30.1767L21.9592 30.3894H21.392C21.1084 30.3894 20.7539 30.3894 20.683 30.3894H20.4703V30.3185V30.2476H19.9031H19.3359V30.3185V30.3894C19.3359 30.3894 19.4068 30.4603 19.4777 30.5312L19.6195 30.6021V30.7439C19.6195 30.8148 19.6195 30.9566 19.6904 31.0275V31.1693H19.8322H19.974V31.3111C20.0449 31.5238 20.1158 31.7365 20.1867 31.9492C20.2576 32.1619 20.3285 32.2328 20.3285 32.2328C20.3285 32.2328 20.3994 32.1619 20.3994 32.091L20.4703 31.9492V31.3111C20.4703 30.9566 20.4703 30.673 20.4703 30.673C20.4703 30.673 20.6121 30.673 20.7539 30.673C21.6756 30.8148 22.6681 30.8148 23.5898 30.7439C23.8025 30.7439 24.3697 30.673 24.4406 30.6021V31.8074L24.5115 31.9492L24.5824 32.091V32.0201C24.5824 32.0201 24.7242 31.7365 24.7951 31.5238L25.0078 31.0984H25.1496C25.2205 31.0984 25.2205 31.0984 25.2914 31.0984C25.2914 31.0984 25.3622 30.8857 25.4331 30.673C25.504 30.4603 25.5749 30.2476 25.5749 30.2476C25.5749 30.2476 25.4331 30.2476 25.0787 30.2476H24.6533V30.3894Z" fill="white"/>
<path d="M23.3775 31.667C23.3066 31.7379 23.2357 31.7379 23.2357 31.7379C23.2357 31.7379 23.1648 31.667 23.0939 31.667L22.9521 31.5961L22.8103 31.7379C22.5267 32.0215 22.5267 32.0215 22.4559 32.0215C22.3141 32.0215 22.3141 32.0215 22.1723 31.8088C22.1014 31.667 22.0305 31.5961 22.0305 31.5961C22.0305 31.5961 21.9596 31.5961 21.8887 31.5961H21.7469L21.676 31.7379L21.6051 31.8797H21.5342C21.4633 31.8797 21.3924 31.8088 21.3215 31.8088L21.1797 31.7379V31.3125H22.3141H23.4484V31.4543C23.5902 31.5252 23.5902 31.5252 23.3775 31.667Z" fill="white"/>
<path d="M16.9259 20.2503C17.2804 20.2503 17.7058 20.2503 17.8476 20.2503C17.9185 20.2503 17.9894 20.2503 17.9894 20.2503C18.0603 20.2503 18.2021 20.2503 18.273 19.6831C18.3439 19.5413 18.273 19.3995 18.2021 19.2577C17.9894 18.9033 17.3513 18.6906 17.2095 18.6906C17.2095 18.6906 16.146 18.6197 16.0042 19.6122C15.9333 19.8958 16.0751 19.9667 16.0751 20.0376C16.2878 20.1794 16.7841 20.2503 16.9259 20.2503Z" fill="#444094"/>
<path d="M27.2052 20.2503C27.5597 20.2503 27.9851 20.2503 28.1269 20.2503C28.1978 20.2503 28.2687 20.2503 28.2687 20.2503C28.3396 20.2503 28.4814 20.2503 28.5523 19.6831C28.6232 19.5413 28.5522 19.3995 28.4814 19.2577C28.2687 18.9033 27.6306 18.6906 27.4888 18.6906C27.4888 18.6906 26.4253 18.6197 26.2835 19.6122C26.2126 19.8958 26.3544 19.9667 26.3544 20.0376C26.638 20.1794 27.0634 20.2503 27.2052 20.2503Z" fill="#444094"/>
<path d="M34.2242 25.9219C34.2242 25.7092 34.2242 25.4256 34.1533 25.2838C33.9406 23.2987 33.4443 21.668 32.5227 19.9665C32.4518 19.8956 32.4518 19.8247 32.4518 19.7538C32.5936 19.3284 33.1607 17.6269 33.5861 15.7126C34.1533 13.0894 34.5787 9.9699 33.3734 9.04822C33.3734 9.04822 31.3883 8.90643 28.6942 11.5296C27.9852 12.2386 27.2762 13.0185 26.709 13.8693L26.4963 13.7984C25.4329 13.4439 24.2985 13.2312 23.1641 13.1603C22.8097 13.1603 21.5335 13.1603 21.1081 13.1603C19.8319 13.2312 18.9103 13.4439 17.7759 13.7984C17.705 13.7984 17.705 13.7984 17.6341 13.8693C16.996 13.0185 16.358 12.2386 15.5781 11.5296C12.8131 8.90643 10.6861 9.04822 10.6861 9.04822C9.48087 9.9699 9.90625 13.2312 10.5443 15.9253C10.9697 17.6978 11.466 19.3284 11.6787 19.8956C11.6787 19.8956 11.6787 19.9665 11.6078 19.9665C10.6152 21.9516 10.1189 23.795 9.90625 25.7801C11.1824 25.6383 14.0892 25.4965 16.4288 27.7653C16.996 26.7018 18.7685 23.8659 22.2425 23.8659C25.7874 23.8659 27.0635 26.6309 27.4889 27.7653C30.3248 25.7801 33.0898 25.7801 34.2242 25.9219ZM17.3505 18.0522C17.6341 18.1231 18.414 18.3358 18.7685 18.903C18.9812 19.1866 19.0521 19.5411 18.9103 19.8247C18.6976 20.6755 18.3431 20.8173 17.9886 20.8173C17.9177 20.8173 17.705 20.8173 17.5632 20.8173C17.3505 20.8173 17.0669 20.8173 16.9251 20.8173C16.7833 20.8173 16.0744 20.8173 15.649 20.3919C15.5072 20.2501 15.3654 19.8956 15.4363 19.4702C15.649 18.2649 16.8542 17.9814 17.3505 18.0522ZM12.6004 18.2649C12.6004 18.2649 10.9697 14.1529 11.3951 11.8841C11.466 11.4588 11.6078 11.1752 11.8205 10.8916C11.8205 10.8916 13.6638 11.1043 16.6415 14.3656C16.6415 14.3656 16.0744 14.6492 15.2945 15.2163C14.4437 15.8544 13.3802 16.847 12.6004 18.2649ZM19.4775 24.3622C19.4775 24.4331 19.3357 24.504 19.1939 24.504C19.0521 24.504 18.6267 24.504 18.3431 24.504C17.4214 24.3622 16.4288 24.0786 15.7199 23.7241C15.2945 23.5114 15.0109 23.2987 14.7982 23.086L14.6564 22.9442V22.8024C14.6564 22.5188 14.6564 22.0934 14.6564 21.8807C14.6564 21.7389 14.7273 21.5971 14.7982 21.5262C14.7982 21.4553 14.7982 21.4553 15.0109 21.4553C15.2236 21.4553 15.3654 21.4553 15.649 21.5971C16.2162 21.7389 16.996 22.1643 17.9886 22.7315C18.7685 23.2278 19.123 23.4405 19.3357 23.795C19.4066 23.9368 19.5484 24.2204 19.4775 24.3622ZM25.7165 19.4702C25.9292 18.194 27.1344 17.9814 27.6307 18.0522C27.9143 18.1231 28.6942 18.3358 29.0487 18.903C29.2614 19.1866 29.3323 19.5411 29.1905 19.8247C28.9778 20.6755 28.6233 20.8173 28.2688 20.8173C28.1979 20.8173 27.9852 20.8173 27.8434 20.8173C27.6307 20.8173 27.3471 20.8173 27.2053 20.8173C27.0635 20.8173 26.3546 20.8173 25.9292 20.3919C25.7874 20.2501 25.6456 19.9665 25.7165 19.4702ZM29.7576 22.8733C29.7576 22.9442 29.5449 23.1569 29.3323 23.2987C28.7651 23.7241 27.6307 24.1495 26.5672 24.3622C25.9292 24.504 25.2911 24.504 25.1493 24.4331C25.0075 24.3622 25.0075 24.2913 25.0784 24.1495C25.1493 23.795 25.4329 23.4405 25.9292 23.1569C26.1419 23.0151 27.1344 22.377 27.5598 22.1643C28.2688 21.7389 28.9069 21.5262 29.2614 21.4553C29.4032 21.4553 29.545 21.4553 29.6159 21.4553C29.6867 21.4553 29.7576 21.7389 29.8285 22.0225C29.8285 22.0934 29.8285 22.8024 29.7576 22.8733ZM29.0487 15.2163C28.3397 14.6492 27.7725 14.3656 27.7725 14.3656C30.6793 11.0334 32.4518 10.8916 32.4518 10.8916C32.6645 11.1752 32.8062 11.5296 32.8771 11.8841C33.3025 14.2238 31.7428 18.2649 31.7428 18.2649C30.9629 17.1306 30.1121 16.0671 29.0487 15.2163Z" fill="#444094"/>
</svg>
