<svg width="45" height="45" viewBox="0 0 45 45" fill="none" xmlns="http://www.w3.org/2000/svg">
<path d="M22.3775 44.3964C20.605 44.3964 18.8326 44.1837 17.0601 43.7583C5.36199 40.8515 -1.79869 28.9406 1.10812 17.1716C2.52608 11.4998 6.07097 6.67871 11.1047 3.70101C16.1385 0.652398 22.023 -0.198375 27.6948 1.21958C39.393 4.12639 46.5536 16.0372 43.6468 27.8063C41.1654 37.732 32.2323 44.3964 22.3775 44.3964ZM22.3066 1.21958C18.4781 1.21958 14.7914 2.28305 11.3883 4.26819C6.56725 7.175 3.09327 11.8543 1.74621 17.3134C-1.08971 28.657 5.85827 40.2134 17.2019 43.0493C28.5456 45.8852 40.1019 38.9372 42.9378 27.5936C45.7738 16.2499 38.8258 4.69358 27.4821 1.85766C25.7806 1.43227 24.079 1.21958 22.3066 1.21958Z" fill="#444094"/>
<path d="M14.1558 27.9451C14.2976 27.8033 14.5103 27.7324 14.723 27.7324H34.4326C34.7871 27.7324 34.9998 28.1578 34.7162 28.4414L30.8168 32.3408C30.675 32.4826 30.4623 32.5535 30.2496 32.5535H10.54C10.1855 32.5535 9.97282 32.1281 10.2564 31.8445L14.1558 27.9451Z" fill="#444094"/>
<path d="M14.1558 13.4119C14.2976 13.2701 14.5103 13.1992 14.723 13.1992H34.4326C34.7871 13.1992 34.9998 13.6246 34.7162 13.9082L30.8168 17.8076C30.675 17.9494 30.4623 18.0203 30.2496 18.0203H10.54C10.1855 18.0203 9.97282 17.5949 10.2564 17.3113L14.1558 13.4119Z" fill="#444094"/>
<path d="M30.8877 20.6424C30.7459 20.5006 30.5332 20.4297 30.3205 20.4297H10.54C10.1855 20.4297 9.97282 20.8551 10.2564 21.1387L14.1558 25.038C14.2976 25.1798 14.5103 25.2507 14.723 25.2507H34.4326C34.7871 25.2507 34.9998 24.8254 34.7162 24.5418L30.8877 20.6424Z" fill="#444094"/>
</svg>
