<svg width="45" height="44" viewBox="0 0 45 44" fill="none" xmlns="http://www.w3.org/2000/svg">
<path d="M22.5904 44.0018C20.8179 44.0018 19.0455 43.7891 17.273 43.3638C5.57488 40.4569 -1.5858 28.5461 1.32101 16.7771C2.73897 11.1052 6.28386 6.28418 11.3176 3.30647C16.3514 0.257867 22.2359 -0.592907 27.9077 0.82505C39.6058 3.73186 46.7665 15.6427 43.8597 27.4117C41.3783 37.3374 32.4452 44.0018 22.5904 44.0018ZM22.5195 0.82505C18.691 0.82505 15.0043 1.88852 11.6012 3.87366C6.78014 6.78047 3.30616 11.4597 1.9591 16.9189C-0.876815 28.2625 6.07116 39.8189 17.4148 42.6548C28.7585 45.4907 40.3148 38.5427 43.1507 27.199C45.9867 15.8554 39.0387 4.29904 27.695 1.46313C25.9935 1.03774 24.2919 0.82505 22.5195 0.82505Z" fill="#444094"/>
<path d="M21.4583 35.7049L20.8911 35.634L11.6035 12.734L12.1707 12.3086L23.3726 21.738L33.6527 20.0365L34.0072 20.6036L21.4583 35.7049ZM12.7379 13.7266L21.3165 34.7832L32.802 20.8872L23.3017 22.447L23.0181 22.3761L12.7379 13.7266Z" fill="#444094"/>
<path d="M33.6529 20.746C33.582 20.746 33.5111 20.746 33.4402 20.6751L28.9028 16.3504L12.1 12.9473C11.8873 12.8764 11.8164 12.7346 11.8164 12.5219C11.8873 12.3092 12.0291 12.2383 12.2418 12.2383L29.1155 15.6414L29.2573 15.7123L33.8656 20.1079C34.0074 20.2497 34.0074 20.4624 33.8656 20.6042C33.7947 20.746 33.7238 20.746 33.6529 20.746Z" fill="#444094"/>
<path d="M21.5293 35.5629L20.8203 35.492L22.8055 22.0214L22.8764 21.8087L28.8318 15.6406L29.3989 16.1369L23.5144 22.2341L21.5293 35.5629Z" fill="#444094"/>
</svg>
