<svg width="45" height="44" viewBox="0 0 45 44" fill="none" xmlns="http://www.w3.org/2000/svg">
<path d="M22.44 44.0018C20.6675 44.0018 18.8951 43.7891 17.1226 43.3638C5.42449 40.4569 -1.73619 28.5461 1.17062 16.7771C2.58858 11.1052 6.13345 6.28418 11.1672 3.30647C16.2009 0.257867 22.0855 -0.592907 27.7573 0.82505C39.4555 3.73186 46.6161 15.6427 43.7093 27.4117C41.2279 37.3374 32.2948 44.0018 22.44 44.0018ZM22.3691 0.82505C18.5406 0.82505 14.8539 1.88852 11.4508 3.87366C6.62975 6.78047 3.15576 11.4597 1.8087 16.9189C-1.02722 28.2625 5.92076 39.8189 17.2644 42.6548C28.6081 45.4907 40.1644 38.5427 43.0003 27.199C45.8363 15.8554 38.8883 4.29904 27.5446 1.46313C25.8431 1.03774 24.1415 0.82505 22.3691 0.82505Z" fill="#444094"/>
<path d="M15.8431 33.5801C15.914 33.7219 16.1267 33.7928 16.2685 33.7928C17.1193 33.651 19.7425 33.0129 19.8134 31.2404C19.8134 31.2404 19.9552 30.2479 18.9626 29.6807C17.8992 29.1135 17.2611 28.4045 17.6156 27.0575C17.9701 25.7104 18.4664 25.4977 18.4664 24.6469C18.4664 23.7962 18.3955 22.7327 19.1753 22.52C19.9552 22.3073 21.7985 22.3073 21.8694 20.464L11.6602 8.97852L20.7351 20.3931C20.7351 20.3931 21.515 21.6692 19.388 21.3856L15.276 15.4302L18.1828 20.8894L18.3955 21.3856C18.3955 21.3856 18.4663 21.4565 17.8992 22.0946C17.332 22.7327 17.7574 24.7178 16.7648 25.994C15.7722 27.1993 13.5744 29.1135 14.9215 31.8076L15.8431 33.5801Z" fill="#444094" stroke="#444094" stroke-miterlimit="10" stroke-linecap="round" stroke-linejoin="round"/>
<path d="M24.2109 32.8703C27.0468 32.4449 26.5505 36.3443 28.2521 37.1241C29.9536 37.904 30.8753 36.6987 30.8753 36.6987C27.9685 37.8331 27.8267 35.2099 27.8267 35.2099C27.5431 32.5158 26.2669 31.8777 26.2669 31.8777C22.9347 29.8217 19.248 33.3665 19.248 33.3665C19.248 33.3665 20.8078 33.4374 21.8004 34.3591C22.7929 35.2808 23.0765 36.4151 24.7072 35.9898C26.0542 35.5644 25.8415 33.7919 24.849 33.5083C24.4945 33.3665 24.0691 33.5083 23.8564 33.8628C23.7146 34.0755 23.6437 34.2882 23.8564 34.5718C23.8564 34.5718 24.3527 33.5792 24.9199 34.0046C25.6289 34.5009 24.9199 35.7771 23.7146 35.2099C22.5093 34.6427 23.0765 33.0121 24.2109 32.8703Z" fill="#444094" stroke="#444094" stroke-width="0.75" stroke-miterlimit="10" stroke-linecap="round" stroke-linejoin="round"/>
<path d="M15.5607 29.6797C15.5607 29.6797 16.2697 29.467 16.4115 30.0342C16.5533 30.5305 16.1988 31.0267 15.7734 30.8141C15.348 30.6014 16.057 30.2469 15.7734 30.176C15.5607 30.0342 15.2771 29.8924 15.5607 29.6797Z" fill="white"/>
<path d="M22.5801 30.8142C22.5801 30.8142 23.9271 29.8925 26.4086 29.6798C28.8191 29.3963 29.8117 27.482 29.1027 25.6387C29.1027 25.6387 30.0952 26.0641 29.599 28.2619C29.1027 30.3888 26.9758 30.1761 26.3377 30.3179C25.7705 30.4597 23.2891 30.3179 22.5801 30.8142Z" fill="#444094" stroke="#444094" stroke-width="0.75" stroke-miterlimit="10" stroke-linecap="round" stroke-linejoin="round"/>
<path d="M30.4495 26.1348C30.4495 26.1348 32.2929 26.9146 34.0653 28.2617C35.8378 29.6088 35.9796 33.6499 32.8601 35.1388C32.8601 35.1388 33.7817 33.4372 32.931 32.1611C32.0093 30.9558 29.6697 27.2691 30.4495 26.1348Z" fill="#444094" stroke="#444094" stroke-width="0.75" stroke-miterlimit="10" stroke-linecap="round" stroke-linejoin="round"/>
<path d="M27.3993 21.4551C27.3993 21.4551 28.0374 22.5894 30.5897 22.6603C33.142 22.7312 37.6795 24.0783 35.6234 29.3247C35.6234 29.3247 35.6234 27.4814 33.4256 26.6306C31.1569 25.6381 26.903 24.5037 27.3993 21.4551Z" fill="#444094" stroke="#444094" stroke-width="0.75" stroke-miterlimit="10" stroke-linecap="round" stroke-linejoin="round"/>
<path d="M20.8066 15.8555C20.8066 15.8555 20.523 20.0384 23.9261 20.6056C23.9261 20.6056 24.3515 20.6056 23.288 19.1877C22.0827 17.7697 23.7843 16.5644 20.8066 15.8555Z" fill="#444094" stroke="#444094" stroke-width="0.75" stroke-miterlimit="10" stroke-linecap="round" stroke-linejoin="round"/>
<path d="M20.7344 15.2168C20.7344 15.2168 23.0031 15.4295 24.7756 17.6273C26.548 19.8252 27.1861 21.5976 30.3056 21.3849C33.4251 21.2431 34.6304 22.9447 34.6304 22.9447C34.6304 22.9447 34.8431 20.9595 33.2124 19.8252C33.2124 19.8252 32.9997 21.4558 32.078 21.314C31.2273 21.1722 32.7161 19.6125 31.7235 18.6908C30.731 17.84 28.8167 16.9183 25.5554 17.5564C25.5554 17.6982 24.3502 15.2168 20.7344 15.2168Z" fill="#444094" stroke="#444094" stroke-width="0.75" stroke-miterlimit="10" stroke-linecap="round" stroke-linejoin="round"/>
<path d="M22.933 22.5898C22.6494 22.5898 22.4367 22.5898 22.224 22.7316C21.9404 22.9443 21.5859 23.2279 21.5859 23.7242C21.5859 24.575 22.5076 24.7168 23.4293 24.3623C24.2801 23.9369 24.3509 22.7316 22.933 22.5898Z" fill="#444094"/>
<path d="M22.8627 23.5117C23.2151 23.5117 23.5008 23.353 23.5008 23.1572C23.5008 22.9614 23.2151 22.8027 22.8627 22.8027C22.5103 22.8027 22.2246 22.9614 22.2246 23.1572C22.2246 23.353 22.5103 23.5117 22.8627 23.5117Z" fill="white"/>
</svg>
