<svg width="45" height="45" viewBox="0 0 45 45" fill="none" xmlns="http://www.w3.org/2000/svg">
<path d="M27.2446 25.331C27.2446 22.7077 25.6849 21.7861 22.4945 21.4316C20.2258 21.148 19.8004 20.5099 19.8004 19.4464C19.8004 18.383 20.5802 17.7449 22.0691 17.7449C23.4162 17.7449 24.196 18.1703 24.5505 19.3046C24.6214 19.5173 24.8341 19.6591 25.0468 19.6591H26.2521C26.5357 19.6591 26.7484 19.4464 26.7484 19.1628V19.0919C26.4648 17.4613 25.1177 16.1851 23.3453 15.9724V14.2C23.3453 13.9164 23.1326 13.7037 22.7781 13.6328H21.6437C21.3601 13.6328 21.1474 13.8455 21.0765 14.2V15.9015C18.8078 16.1851 17.3899 17.674 17.3899 19.5882C17.3899 22.0697 18.8787 23.0622 22.0691 23.4167C24.196 23.7712 24.8341 24.2675 24.8341 25.4728C24.8341 26.678 23.7707 27.5288 22.3527 27.5288C20.3676 27.5288 19.7295 26.678 19.5168 25.5437C19.4459 25.2601 19.2332 25.1183 19.0205 25.1183H17.7443C17.4607 25.1183 17.248 25.331 17.248 25.6145V25.6854C17.5316 27.5997 18.7369 28.9467 21.2183 29.3012V31.0737C21.2183 31.3573 21.431 31.57 21.7855 31.6409H22.9199C23.2035 31.6409 23.4162 31.4282 23.487 31.0737V29.3012C25.7558 28.9467 27.2446 27.387 27.2446 25.331Z" fill="#444094"/>
<path d="M22.2837 44.6893C20.5113 44.6893 18.7388 44.4766 16.9664 44.0513C5.26824 41.0735 -1.89244 29.1627 1.01437 17.4646C2.43233 11.7927 5.97722 6.97168 11.011 3.99397C16.0447 0.945367 21.9292 0.0945933 27.6011 1.51255C39.2992 4.41936 46.4599 16.3302 43.5531 28.0992C41.0716 38.0249 32.0676 44.6893 22.2837 44.6893ZM22.2128 1.51255C18.3843 1.51255 14.6977 2.57602 11.2946 4.56116C6.4735 7.46797 2.99951 12.1472 1.65245 17.6064C-1.18347 28.95 5.76451 40.5064 17.1082 43.3423C28.4518 46.1782 40.0082 39.2302 42.8441 27.8865C45.68 16.5429 38.732 4.98654 27.3884 2.15063C25.6868 1.72524 23.9853 1.51255 22.2128 1.51255Z" fill="#444094"/>
<path d="M18.4545 33.273C12.57 31.1461 9.59231 24.6235 11.7192 18.8099C12.8536 15.6195 15.335 13.209 18.4545 12.0746C18.7381 11.9328 18.8799 11.7201 18.8799 11.2947V10.2312C18.8799 9.94765 18.7381 9.73496 18.4545 9.66406C18.3836 9.66406 18.2418 9.66406 18.1709 9.73496C11.0102 12.0037 7.11087 19.5898 9.3796 26.7504C10.7267 30.9334 13.988 34.1947 18.1709 35.5418C18.4545 35.6836 18.7381 35.5418 18.8799 35.2582C18.9508 35.1873 18.9508 35.1164 18.9508 34.9746V33.9111C18.8799 33.6984 18.6672 33.4148 18.4545 33.273ZM26.3951 9.80586C26.1115 9.66406 25.8279 9.80586 25.6861 10.0894C25.6152 10.1603 25.6152 10.2312 25.6152 10.373V11.4365C25.6152 11.7201 25.8279 12.0037 26.0406 12.2164C31.9251 14.3433 34.9028 20.8659 32.7759 26.6795C31.6415 29.8699 29.1601 32.2805 26.0406 33.4148C25.757 33.5566 25.6152 33.7693 25.6152 34.1947V35.2582C25.6152 35.5418 25.757 35.7545 26.0406 35.8254C26.1115 35.8254 26.2533 35.8254 26.3242 35.7545C33.4849 33.4857 37.3843 25.8997 35.1155 18.739C33.8394 14.3433 30.5781 11.1529 26.3951 9.80586Z" fill="#444094"/>
</svg>
