<svg width="45" height="45" viewBox="0 0 45 45" fill="none" xmlns="http://www.w3.org/2000/svg">
<path d="M24.8481 19.9411V17.0343H31.4416V12.6387H13.4336V17.0343H20.0271V19.9411C14.6388 20.1538 10.5977 21.2173 10.5977 22.4935C10.5977 23.7696 14.6388 24.8331 20.0271 25.0458V34.2625H24.7772V25.0458C30.1655 24.8331 34.1357 23.7696 34.1357 22.4935C34.2066 21.2882 30.1655 20.2247 24.8481 19.9411ZM24.8481 24.3368C24.7063 24.3368 23.9973 24.4077 22.5085 24.4077C21.3032 24.4077 20.3816 24.4077 20.098 24.3368C15.3478 24.1241 11.8029 23.2733 11.8029 22.2808C11.8029 21.2882 15.3478 20.4374 20.098 20.2247V23.486C20.3816 23.486 21.3032 23.5569 22.5085 23.5569C23.9973 23.5569 24.7063 23.486 24.8481 23.486V20.2956C29.5983 20.5083 33.1432 21.3591 33.1432 22.3517C33.0723 23.2733 29.5983 24.1241 24.8481 24.3368Z" fill="#444094"/>
<path d="M22.44 44.6874C20.6675 44.6874 18.8951 44.4747 17.1226 44.0493C5.42449 41.1425 -1.73619 29.2317 1.17062 17.4626C2.58858 11.7908 6.13345 6.96973 11.1672 3.99202C16.2009 0.943414 22.0855 0.0926402 27.7573 1.5106C39.4555 4.41741 46.6161 16.3282 43.7093 28.0973C41.2279 38.023 32.2948 44.6874 22.44 44.6874ZM22.3691 1.5106C18.5406 1.5106 14.8539 2.57406 11.4508 4.5592C6.62975 7.46601 3.15576 12.1453 1.8087 17.6044C-1.02722 28.9481 5.92076 40.5044 17.2644 43.3403C28.6081 46.1762 40.1644 39.2282 43.0003 27.8846C45.8363 16.5409 38.8883 4.98459 27.5446 2.14868C25.8431 1.72329 24.1415 1.5106 22.3691 1.5106Z" fill="#444094"/>
</svg>
