<svg width="45" height="45" viewBox="0 0 45 45" fill="none" xmlns="http://www.w3.org/2000/svg">
<path d="M22.5904 44.6874C20.8179 44.6874 19.0455 44.4747 17.273 44.0493C5.57488 41.1425 -1.5858 29.2317 1.32101 17.4626C2.73897 11.7908 6.28386 6.96973 11.3176 3.99202C16.3514 0.943414 22.2359 0.0926402 27.9077 1.5106C39.6058 4.41741 46.7665 16.3282 43.8597 28.0973C41.3783 38.023 32.4452 44.6874 22.5904 44.6874ZM22.5195 1.5106C18.691 1.5106 15.0043 2.57406 11.6012 4.5592C6.78014 7.46601 3.30616 12.1453 1.9591 17.6044C-0.876815 28.9481 6.07116 40.5044 17.4148 43.3403C28.7585 46.1762 40.3148 39.2282 43.1507 27.8846C45.9867 16.5409 39.0387 4.98459 27.695 2.14868C25.9935 1.72329 24.2919 1.5106 22.5195 1.5106Z" fill="#444094"/>
<path d="M35.045 12.772L8.70898 26.209L9.67568 28.1037L36.0117 14.6666L35.045 12.772Z" fill="#444094"/>
<path d="M35.0313 17.3833L8.69531 30.8203L9.662 32.715L35.998 19.278L35.0313 17.3833Z" fill="#444094"/>
<path d="M22.3788 35.0419C19.8265 35.0419 17.3451 34.262 15.2891 32.7731L16.4943 31.0007C18.1959 32.2059 20.2519 32.844 22.3788 32.844C27.9798 32.844 32.5881 28.2357 32.5881 22.6347C32.5881 21.9967 32.5172 21.2877 32.3754 20.6496L32.0919 19.9406L34.0061 19.0898L34.4315 20.0824C34.5733 20.9332 34.7151 21.784 34.7151 22.6347C34.7151 29.5118 29.185 35.0419 22.3788 35.0419Z" fill="#444094"/>
<path d="M10.5379 26.3212C10.3252 25.6122 10.1834 24.8323 10.0416 24.0524C9.97071 23.627 9.9707 23.1308 9.9707 22.7054C9.9707 15.8992 15.5007 10.3691 22.3069 10.3691C23.3704 10.3691 24.4339 10.5109 25.4264 10.7945L24.8592 12.8506C24.0085 12.6379 23.1577 12.4961 22.3069 12.4961C16.706 12.4961 12.0976 17.1044 12.0976 22.7054C12.0976 23.0599 12.0976 23.4852 12.1685 23.8397C12.2394 24.4778 12.3812 25.1159 12.523 25.6831L10.5379 26.3212Z" fill="#444094"/>
</svg>
