<svg width="45" height="45" viewBox="0 0 45 45" fill="none" xmlns="http://www.w3.org/2000/svg">
<path d="M22.2466 44.3964C20.4742 44.3964 18.7017 44.1837 16.9293 43.7583C5.23113 40.7806 -1.92955 28.8697 0.977261 17.1716C2.39522 11.4998 5.94011 6.67871 10.9739 3.70101C16.0076 0.652398 21.8921 -0.198375 27.5639 1.21958C39.2621 4.12639 46.4228 16.0372 43.516 27.8063C41.0345 37.732 32.1014 44.3964 22.2466 44.3964ZM22.2466 1.21958C18.4181 1.21958 14.7314 2.28305 11.3283 4.26819C6.50729 7.175 3.0333 11.8543 1.68624 17.3134C-1.14967 28.657 5.79831 40.2134 17.142 43.0493C28.4856 45.8852 40.042 38.9372 42.8779 27.5936C45.7138 16.2499 38.7658 4.69358 27.4221 1.85766C25.6497 1.43227 23.9482 1.21958 22.2466 1.21958Z" fill="#444094"/>
<path d="M31.3941 11.1445H35.1517L27.2821 18.9433C24.4462 21.7792 19.8378 21.7792 17.0019 18.9433L9.20312 11.1445H12.9607L18.9161 17.0291C20.7595 18.8015 23.5954 18.8015 25.4387 17.0291L31.3941 11.1445Z" fill="#444094"/>
<path d="M12.8904 32.7675H9.13281L17.0025 24.9687C19.8384 22.1328 24.4467 22.1328 27.2827 24.9687L35.1523 32.7675H31.3947L25.3684 26.8121C23.5251 25.0396 20.6892 25.0396 18.8458 26.8121L12.8904 32.7675Z" fill="#444094"/>
</svg>
